<svg width="25" height="25" viewBox="0 0 25 25" fill="none" xmlns="http://www.w3.org/2000/svg">
<path d="M19.7917 20.8334C19.5155 20.8334 19.2505 20.7236 19.0552 20.5283C18.8598 20.3329 18.7501 20.068 18.7501 19.7917V18.75H17.7084C17.4321 18.75 17.1672 18.6403 16.9718 18.4449C16.7765 18.2496 16.6667 17.9846 16.6667 17.7084C16.6667 17.4321 16.7765 17.1672 16.9718 16.9718C17.1672 16.7765 17.4321 16.6667 17.7084 16.6667H18.7501V15.625C18.7501 15.3488 18.8598 15.0838 19.0552 14.8885C19.2505 14.6931 19.5155 14.5834 19.7917 14.5834C20.068 14.5834 20.333 14.6931 20.5283 14.8885C20.7237 15.0838 20.8334 15.3488 20.8334 15.625V16.6667H21.8751C22.1513 16.6667 22.4163 16.7765 22.6117 16.9718C22.807 17.1672 22.9167 17.4321 22.9167 17.7084C22.9167 17.9846 22.807 18.2496 22.6117 18.4449C22.4163 18.6403 22.1513 18.75 21.8751 18.75H20.8334V19.7917C20.8334 20.068 20.7237 20.3329 20.5283 20.5283C20.333 20.7236 20.068 20.8334 19.7917 20.8334Z" fill="white"/>
<path d="M6.43742 8.70831C6.18265 7.81543 6.17122 6.87068 6.40428 5.97189C6.63735 5.07311 7.10646 4.25297 7.76302 3.59641C8.41958 2.93985 9.23972 2.47075 10.1385 2.23768C11.0373 2.00461 11.982 2.01605 12.8749 2.27081C13.7384 2.504 14.5255 2.95952 15.158 3.59193C15.7904 4.22435 16.2459 5.01154 16.4791 5.87497C16.7338 6.76785 16.7453 7.71261 16.5122 8.61139C16.2791 9.51018 15.81 10.3303 15.1535 10.9869C14.4969 11.6434 13.6768 12.1125 12.778 12.3456C11.8792 12.5787 10.9345 12.5672 10.0416 12.3125C9.17815 12.0793 8.39096 11.6238 7.75854 10.9913C7.12613 10.3589 6.67061 9.57174 6.43742 8.70831ZM14.5833 14.5833H8.33325C6.67565 14.5833 5.08594 15.2418 3.91383 16.4139C2.74173 17.586 2.08325 19.1757 2.08325 20.8333C2.08325 21.3858 2.30275 21.9157 2.69345 22.3064C3.08415 22.6971 3.61405 22.9166 4.16659 22.9166H14.5833C14.8595 22.9166 15.1245 22.8069 15.3198 22.6115C15.5152 22.4162 15.6249 22.1512 15.6249 21.875V15.625C15.6249 15.3487 15.5152 15.0838 15.3198 14.8884C15.1245 14.6931 14.8595 14.5833 14.5833 14.5833Z" fill="white"/>
</svg>
