<svg width="35" height="35" viewBox="0 0 35 35" fill="none" xmlns="http://www.w3.org/2000/svg">
<path d="M27.7083 29.1666C27.3215 29.1666 26.9505 29.013 26.6771 28.7395C26.4036 28.466 26.2499 28.0951 26.2499 27.7083V26.25H24.7916C24.4048 26.25 24.0339 26.0963 23.7604 25.8228C23.4869 25.5493 23.3333 25.1784 23.3333 24.7916C23.3333 24.4049 23.4869 24.0339 23.7604 23.7604C24.0339 23.4869 24.4048 23.3333 24.7916 23.3333H26.2499V21.875C26.2499 21.4882 26.4036 21.1173 26.6771 20.8438C26.9505 20.5703 27.3215 20.4166 27.7083 20.4166C28.095 20.4166 28.466 20.5703 28.7395 20.8438C29.0129 21.1173 29.1666 21.4882 29.1666 21.875V23.3333H30.6249C31.0117 23.3333 31.3826 23.4869 31.6561 23.7604C31.9296 24.0339 32.0833 24.4049 32.0833 24.7916C32.0833 25.1784 31.9296 25.5493 31.6561 25.8228C31.3826 26.0963 31.0117 26.25 30.6249 26.25H29.1666V27.7083C29.1666 28.0951 29.0129 28.466 28.7395 28.7395C28.466 29.013 28.095 29.1666 27.7083 29.1666Z" fill="#A340F3"/>
<path d="M9.01258 12.1916C8.65591 10.9416 8.6399 9.61895 8.96619 8.36065C9.29249 7.10235 9.94924 5.95415 10.8684 5.03497C11.7876 4.11579 12.9358 3.45904 14.1941 3.13275C15.4524 2.80645 16.775 2.82246 18.0251 3.17913C19.2339 3.50559 20.336 4.14333 21.2213 5.02871C22.1067 5.91409 22.7445 7.01616 23.0709 8.22497C23.4276 9.475 23.4436 10.7976 23.1173 12.0559C22.791 13.3142 22.1343 14.4624 21.2151 15.3816C20.2959 16.3008 19.1477 16.9576 17.8894 17.2839C16.6311 17.6101 15.3084 17.5941 14.0584 17.2375C12.8496 16.911 11.7475 16.2733 10.8622 15.3879C9.97678 14.5025 9.33904 13.4004 9.01258 12.1916ZM20.4167 20.4166H11.6667C9.3461 20.4166 7.12051 21.3385 5.47956 22.9794C3.83862 24.6204 2.91675 26.846 2.91675 29.1666C2.91675 29.9402 3.22404 30.682 3.77102 31.229C4.318 31.776 5.05987 32.0833 5.83341 32.0833H20.4167C20.8035 32.0833 21.1745 31.9297 21.4479 31.6562C21.7214 31.3827 21.8751 31.0117 21.8751 30.625V21.875C21.8751 21.4882 21.7214 21.1173 21.4479 20.8438C21.1745 20.5703 20.8035 20.4166 20.4167 20.4166Z" fill="#A340F3"/>
</svg>
