<svg width="30" height="30" viewBox="0 0 30 30" fill="none" xmlns="http://www.w3.org/2000/svg">
<g clip-path="url(#clip0_116_101)">
<path d="M14.9999 1.24999C14.7852 1.25921 14.576 1.32102 14.3907 1.43C14.2055 1.53898 14.0498 1.69178 13.9374 1.87499L8.24991 10.625C8.15581 10.8199 8.10693 11.0336 8.10693 11.25C8.10693 11.4664 8.15581 11.6801 8.24991 11.875C8.35285 12.0664 8.50636 12.226 8.69372 12.3362C8.88107 12.4464 9.09507 12.503 9.31241 12.5H20.6249C20.8397 12.4908 21.0488 12.429 21.2341 12.32C21.4194 12.211 21.575 12.0582 21.6874 11.875C21.811 11.69 21.877 11.4725 21.877 11.25C21.877 11.0275 21.811 10.81 21.6874 10.625L16.0624 1.87499C15.9595 1.68355 15.806 1.52404 15.6186 1.41383C15.4313 1.30362 15.2173 1.24695 14.9999 1.24999Z" fill="white"/>
<path d="M26.875 26.875H18.125C17.7935 26.875 17.4755 26.7433 17.2411 26.5089C17.0067 26.2745 16.875 25.9565 16.875 25.625V16.875C16.875 16.5435 17.0067 16.2255 17.2411 15.9911C17.4755 15.7567 17.7935 15.625 18.125 15.625H26.875C27.2065 15.625 27.5245 15.7567 27.7589 15.9911C27.9933 16.2255 28.125 16.5435 28.125 16.875V25.625C28.125 25.9565 27.9933 26.2745 27.7589 26.5089C27.5245 26.7433 27.2065 26.875 26.875 26.875Z" fill="white"/>
<path d="M8.125 15C6.88887 15 5.6805 15.3666 4.65269 16.0533C3.62488 16.7401 2.8238 17.7162 2.35076 18.8582C1.87771 20.0003 1.75394 21.2569 1.99509 22.4693C2.23625 23.6817 2.83151 24.7953 3.70559 25.6694C4.57966 26.5435 5.69331 27.1388 6.90569 27.3799C8.11807 27.6211 9.37474 27.4973 10.5168 27.0242C11.6588 26.5512 12.6349 25.7501 13.3217 24.7223C14.0084 23.6945 14.375 22.4861 14.375 21.25C14.375 20.4292 14.2133 19.6165 13.8993 18.8582C13.5852 18.0999 13.1248 17.4109 12.5444 16.8306C11.9641 16.2502 11.2751 15.7898 10.5168 15.4758C9.75849 15.1617 8.94576 15 8.125 15Z" fill="white"/>
</g>
<defs>
<clipPath id="clip0_116_101">
<rect width="30" height="30" fill="white"/>
</clipPath>
</defs>
</svg>
