<svg width="35" height="35" viewBox="0 0 35 35" fill="none" xmlns="http://www.w3.org/2000/svg">
<g clip-path="url(#clip0_117_45)">
<path d="M17.5001 1.45839C17.2495 1.46914 17.0055 1.54125 16.7893 1.66839C16.5732 1.79553 16.3916 1.97381 16.2605 2.18755L9.62506 12.3959C9.51527 12.6233 9.45825 12.8725 9.45825 13.1251C9.45825 13.3776 9.51527 13.6268 9.62506 13.8542C9.74516 14.0776 9.92425 14.2637 10.1428 14.3922C10.3614 14.5208 10.6111 14.5869 10.8646 14.5834H24.0626C24.3131 14.5726 24.5571 14.5005 24.7733 14.3734C24.9894 14.2462 25.171 14.068 25.3021 13.8542C25.4464 13.6384 25.5233 13.3846 25.5233 13.1251C25.5233 12.8655 25.4464 12.6117 25.3021 12.3959L18.7396 2.18755C18.6195 1.96421 18.4405 1.77811 18.2219 1.64953C18.0033 1.52096 17.7536 1.45484 17.5001 1.45839Z" fill="#A340F3"/>
<path d="M31.3542 31.3542H21.1458C20.7591 31.3542 20.3881 31.2006 20.1146 30.9271C19.8411 30.6536 19.6875 30.2827 19.6875 29.8959V19.6876C19.6875 19.3008 19.8411 18.9299 20.1146 18.6564C20.3881 18.3829 20.7591 18.2292 21.1458 18.2292H31.3542C31.7409 18.2292 32.1119 18.3829 32.3854 18.6564C32.6589 18.9299 32.8125 19.3008 32.8125 19.6876V29.8959C32.8125 30.2827 32.6589 30.6536 32.3854 30.9271C32.1119 31.2006 31.7409 31.3542 31.3542 31.3542Z" fill="#A340F3"/>
<path d="M9.47917 17.5C8.03701 17.5 6.62724 17.9276 5.42814 18.7289C4.22903 19.5301 3.29444 20.6689 2.74255 22.0013C2.19066 23.3336 2.04626 24.7998 2.32761 26.2142C2.60896 27.6286 3.30343 28.9279 4.32318 29.9477C5.34294 30.9674 6.64219 31.6619 8.05664 31.9432C9.47108 32.2246 10.9372 32.0802 12.2696 31.5283C13.6019 30.9764 14.7407 30.0418 15.542 28.8427C16.3432 27.6436 16.7708 26.2338 16.7708 24.7917C16.7708 23.8341 16.5822 22.8859 16.2158 22.0013C15.8493 21.1166 15.3122 20.3128 14.6352 19.6357C13.9581 18.9586 13.1542 18.4215 12.2696 18.055C11.3849 17.6886 10.4367 17.5 9.47917 17.5Z" fill="#A340F3"/>
</g>
<defs>
<clipPath id="clip0_117_45">
<rect width="35" height="35" fill="white"/>
</clipPath>
</defs>
</svg>
