<svg width="22" height="22" viewBox="0 0 22 22" fill="none" xmlns="http://www.w3.org/2000/svg">
<path d="M18.7 0H3.3C1.74437 0 0.966548 -5.96046e-08 0.483274 0.503799C1.19209e-07 1.0076 0 1.81844 0 3.44014V4.28325C0 5.55172 -8.9407e-08 6.18595 0.28556 6.71173C0.57112 7.2375 1.09282 7.56381 2.13622 8.21644L5.34054 10.2207C6.04061 10.6585 6.39064 10.8775 6.64126 11.1193C7.16319 11.6227 7.48449 12.2143 7.63008 12.9399C7.7 13.2882 7.7 13.696 7.7 14.5113V17.774C7.7 18.8858 7.7 19.4415 7.97711 19.8749C8.25423 20.3082 8.74641 20.5219 9.73082 20.9496C11.7973 21.8472 12.8305 22.296 13.5653 21.7853C14.3 21.2747 14.3 20.1078 14.3 17.774V14.5113C14.3 13.696 14.3 13.2882 14.37 12.9399C14.5155 12.2143 14.8368 11.6227 15.3588 11.1193C15.6093 10.8775 15.9594 10.6585 16.6595 10.2207L19.8638 8.21644C20.9072 7.56381 21.4289 7.2375 21.7144 6.71173C22 6.18595 22 5.55172 22 4.28325V3.44014C22 1.81844 22 1.0076 21.5168 0.503799C21.0334 -5.96046e-08 20.2556 0 18.7 0Z" fill="#888888"/>
</svg>
