<svg width="30" height="30" viewBox="0 0 30 30" fill="none" xmlns="http://www.w3.org/2000/svg">
<path d="M21.9719 5.5394L19.4719 4.22746C17.2774 3.07582 16.1802 2.5 14.9998 2.5C13.8194 2.5 12.7222 3.07582 10.5276 4.22746L10.1255 4.4385L21.2793 10.8121L26.3002 8.30165C25.4924 7.38686 24.1892 6.70292 21.9719 5.5394Z" fill="white"/>
<path d="M27.1855 9.95544L22.1875 12.4544V16.25C22.1875 16.7678 21.7678 17.1875 21.25 17.1875C20.7323 17.1875 20.3125 16.7678 20.3125 16.25V13.3919L15.9375 15.5794V27.38C16.8349 27.1565 17.856 26.6206 19.4721 25.7725L21.9721 24.4606C24.6618 23.0491 26.0065 22.3435 26.7533 21.0754C27.5 19.8073 27.5 18.2291 27.5 15.0731V14.9269C27.5 12.5611 27.5 11.082 27.1855 9.95544Z" fill="white"/>
<path d="M14.0625 27.38V15.5794L2.81455 9.95544C2.5 11.082 2.5 12.5611 2.5 14.9269V15.0731C2.5 18.2291 2.5 19.8073 3.24675 21.0754C3.99349 22.3435 5.33828 23.0491 8.02785 24.4606L10.5279 25.7725C12.1441 26.6206 13.1651 27.1565 14.0625 27.38Z" fill="white"/>
<path d="M3.69971 8.30163L15.0001 13.9519L19.2641 11.8199L8.15579 5.47229L8.02796 5.53938C5.81078 6.7029 4.50747 7.38684 3.69971 8.30163Z" fill="white"/>
</svg>
