<svg width="26" height="26" viewBox="0 0 26 26" fill="none" xmlns="http://www.w3.org/2000/svg">
<path d="M19.9719 3.5394L17.4719 2.22746C15.2774 1.07582 14.1802 0.5 12.9998 0.5C11.8194 0.5 10.7222 1.07582 8.52764 2.22746L8.12549 2.4385L19.2793 8.81209L24.3002 6.30165C23.4924 5.38686 22.1892 4.70292 19.9719 3.5394Z" fill="white"/>
<path d="M25.1855 7.95544L20.1875 10.4544V14.25C20.1875 14.7678 19.7678 15.1875 19.25 15.1875C18.7323 15.1875 18.3125 14.7678 18.3125 14.25V11.3919L13.9375 13.5794V25.38C14.8349 25.1565 15.856 24.6206 17.4721 23.7725L19.9721 22.4606C22.6618 21.0491 24.0065 20.3435 24.7533 19.0754C25.5 17.8073 25.5 16.2291 25.5 13.0731V12.9269C25.5 10.5611 25.5 9.08198 25.1855 7.95544Z" fill="white"/>
<path d="M12.0625 25.38V13.5794L0.81455 7.95544C0.5 9.08198 0.5 10.5611 0.5 12.9269V13.0731C0.5 16.2291 0.5 17.8073 1.24675 19.0754C1.99349 20.3435 3.33828 21.0491 6.02785 22.4606L8.52786 23.7725C10.1441 24.6206 11.1651 25.1565 12.0625 25.38Z" fill="white"/>
<path d="M1.69971 6.30163L13.0001 11.9519L17.2641 9.81985L6.15579 3.47229L6.02796 3.53938C3.81078 4.7029 2.50747 5.38684 1.69971 6.30163Z" fill="white"/>
</svg>
