<svg width="40" height="40" viewBox="0 0 40 40" fill="none" xmlns="http://www.w3.org/2000/svg">
<g clip-path="url(#clip0_71_353)">
<path fill-rule="evenodd" clip-rule="evenodd" d="M8.33325 15.8334C8.33325 11.6912 11.6911 8.33337 15.8333 8.33337C19.9754 8.33337 23.3333 11.6912 23.3333 15.8334C23.3333 19.9755 19.9754 23.3334 15.8333 23.3334C11.6911 23.3334 8.33325 19.9755 8.33325 15.8334Z" fill="#A340F3"/>
<path d="M23.9459 20.1053C23.87 20.249 23.9022 20.4282 24.0327 20.5248C25.002 21.2423 26.2015 21.6667 27.5 21.6667C30.7217 21.6667 33.3334 19.055 33.3334 15.8333C33.3334 12.6117 30.7217 10 27.5 10C26.2015 10 25.002 10.4243 24.0327 11.1419C23.9022 11.2386 23.87 11.4176 23.9459 11.5613C24.619 12.837 25 14.2907 25 15.8333C25 17.376 24.619 18.8297 23.9459 20.1053Z" fill="#A340F3"/>
<path fill-rule="evenodd" clip-rule="evenodd" d="M7.73533 26.1655C9.78927 25.274 12.4842 25 15.8333 25C19.1854 25 21.8822 25.2745 23.9369 26.168C26.1751 27.1412 27.5354 28.7988 28.2484 31.1393C28.5826 32.2363 27.7586 33.3333 26.6231 33.3333H5.04677C3.9099 33.3333 3.08417 32.2347 3.41937 31.1357C4.13332 28.7948 5.49572 27.1377 7.73533 26.1655Z" fill="#A340F3"/>
<path d="M24.6974 23.3941C24.0074 23.4369 23.9669 24.3639 24.6009 24.6396C26.3383 25.3951 27.6464 26.5072 28.5846 27.9267C29.3544 29.0916 30.5499 30.0001 31.9461 30.0001H34.9138C36.0924 30.0001 36.9524 28.8289 36.5378 27.6847C36.5139 27.6189 36.4891 27.5536 36.4634 27.4887C35.8928 26.0477 34.9146 24.9869 33.4663 24.3107C32.1064 23.6759 30.4041 23.4139 28.3986 23.3347L28.3656 23.3334H28.3328C27.1514 23.3334 25.9176 23.3182 24.6974 23.3941Z" fill="#A340F3"/>
</g>
<defs>
<clipPath id="clip0_71_353">
<rect width="40" height="40" fill="white"/>
</clipPath>
</defs>
</svg>
